<?xml version="1.0" standalone="no"?>
<!DOCTYPE svg PUBLIC "-//W3C//DTD SVG 20010904//EN"
 "http://www.w3.org/TR/2001/REC-SVG-20010904/DTD/svg10.dtd">
<svg version="1.0" xmlns="http://www.w3.org/2000/svg"
 width="300.000000pt" height="299.000000pt" viewBox="0 0 300.000000 299.000000"
 preserveAspectRatio="xMidYMid meet">

<g transform="translate(0.000000,299.000000) scale(0.100000,-0.100000)"
fill="#9e6a03" stroke="none">
<path d="M1380 2899 c-186 -125 -261 -152 -358 -130 -31 7 -93 14 -137 14
-127 1 -160 -26 -219 -183 -54 -143 -125 -212 -272 -266 -139 -51 -198 -130
-182 -244 5 -30 10 -93 13 -139 4 -76 2 -91 -24 -151 -15 -38 -48 -94 -73
-126 -73 -96 -108 -158 -108 -195 0 -27 15 -52 74 -126 41 -50 87 -118 102
-150 26 -52 29 -67 28 -153 -1 -52 -5 -123 -9 -156 -9 -74 4 -121 48 -170 25
-29 88 -71 107 -72 20 -1 71 -18 104 -34 90 -46 156 -134 196 -263 41 -136
142 -180 319 -140 59 14 81 15 124 5 76 -17 144 -51 221 -110 154 -118 223
-118 353 0 103 94 217 135 304 111 67 -19 160 -24 209 -11 53 14 125 81 136
125 14 60 73 161 119 207 45 44 149 104 196 113 41 8 108 55 131 92 25 42 28
91 13 276 -7 88 -5 102 15 153 13 31 52 92 86 136 66 82 84 124 84 196 0 60
-20 101 -79 162 -28 29 -65 82 -82 118 -30 62 -31 69 -25 156 3 50 8 116 12
146 12 103 -32 189 -113 222 -21 9 -69 28 -107 44 -121 49 -202 141 -252 289
-44 132 -120 165 -307 132 -63 -12 -90 -12 -140 -2 -78 14 -154 53 -198 100
-54 57 -120 95 -165 95 -32 0 -59 -14 -144 -71z m290 -379 c0 -5 -4 -10 -10
-10 -5 0 -10 5 -10 10 0 6 5 10 10 10 6 0 10 -4 10 -10z m-440 -15 c0 -8 -4
-15 -10 -15 -5 0 -10 7 -10 15 0 8 5 15 10 15 6 0 10 -7 10 -15z m775 -44 c7
-12 -12 -24 -25 -16 -11 7 -4 25 10 25 5 0 11 -4 15 -9z m-1065 -10 c0 -12
-20 -25 -27 -18 -7 7 6 27 18 27 5 0 9 -4 9 -9z m885 -20 c7 -12 -12 -24 -25
-16 -11 7 -4 25 10 25 5 0 11 -4 15 -9z m-821 -30 c3 -5 0 -11 -8 -14 -15 -6
-26 1 -26 15 0 11 27 10 34 -1z m726 5 c0 -3 -4 -8 -10 -11 -5 -3 -10 -1 -10
4 0 6 5 11 10 11 6 0 10 -2 10 -4z m-675 -16 c3 -5 1 -10 -4 -10 -6 0 -11 5
-11 10 0 6 2 10 4 10 3 0 8 -4 11 -10z m414 -4 c10 -11 8 -16 -8 -21 -12 -3
-30 -3 -42 0 -16 5 -18 10 -8 21 6 8 19 14 29 14 10 0 23 -6 29 -14z m-269
-16 c0 -5 -4 -10 -10 -10 -5 0 -10 5 -10 10 0 6 5 10 10 10 6 0 10 -4 10 -10z
m150 -10 c0 -5 -4 -10 -10 -10 -5 0 -10 5 -10 10 0 6 5 10 10 10 6 0 10 -4 10
-10z m-80 -30 c0 -5 -4 -10 -10 -10 -5 0 -10 5 -10 10 0 6 5 10 10 10 6 0 10
-4 10 -10z m345 -29 c7 -12 -12 -24 -25 -16 -11 7 -4 25 10 25 5 0 11 -4 15
-9z m-645 -31 c0 -5 -4 -10 -10 -10 -5 0 -10 5 -10 10 0 6 5 10 10 10 6 0 10
-4 10 -10z m408 -2 c-6 -18 -28 -21 -28 -4 0 9 7 16 16 16 9 0 14 -5 12 -12z
m312 3 c0 -12 -20 -25 -27 -18 -7 7 6 27 18 27 5 0 9 -4 9 -9z m-530 -41 c0
-5 -4 -10 -10 -10 -5 0 -10 5 -10 10 0 6 5 10 10 10 6 0 10 -4 10 -10z m155 1
c3 -5 1 -12 -5 -16 -5 -3 -10 1 -10 9 0 18 6 21 15 7z m574 -5 c8 -10 8 -16
-3 -25 -10 -9 -16 -8 -26 3 -12 15 -6 36 9 36 5 0 14 -6 20 -14z m-659 -16 c0
-5 -4 -10 -10 -10 -5 0 -10 5 -10 10 0 6 5 10 10 10 6 0 10 -4 10 -10z m150
-13 c0 -8 -3 -17 -7 -20 -9 -9 -34 13 -27 24 8 14 34 11 34 -4z m297 -3 c9
-23 -11 -38 -26 -20 -13 16 -7 36 10 36 5 0 12 -7 16 -16z m263 6 c0 -5 -7
-10 -15 -10 -8 0 -15 5 -15 10 0 6 7 10 15 10 8 0 15 -4 15 -10z m-1090 -20
c0 -5 -4 -10 -10 -10 -5 0 -10 5 -10 10 0 6 5 10 10 10 6 0 10 -4 10 -10z
m962 -5 c0 -5 -5 -11 -11 -13 -6 -2 -11 4 -11 13 0 9 5 15 11 13 6 -2 11 -8
11 -13z m-525 -21 c-9 -9 -28 6 -21 18 4 6 10 6 17 -1 6 -6 8 -13 4 -17z m433
11 c18 -22 -16 -101 -36 -84 -9 7 -12 21 -8 38 15 68 21 74 44 46z m-555 -6
c10 -15 -1 -23 -20 -15 -9 3 -13 10 -10 16 8 13 22 13 30 -1z m-235 -25 c0
-16 -16 -19 -25 -4 -8 13 4 32 16 25 5 -4 9 -13 9 -21z m425 -4 c-5 -8 -11 -8
-17 -2 -6 6 -7 16 -3 22 5 8 11 8 17 2 6 -6 7 -16 3 -22z m713 -8 c2 -14 -2
-22 -12 -22 -19 0 -29 17 -22 36 8 22 30 12 34 -14z m-848 -2 c0 -16 -12 -40
-20 -40 -10 0 -21 41 -14 51 6 10 34 0 34 -11z m254 11 c3 -5 -1 -14 -8 -20
-16 -13 -32 2 -21 19 8 12 22 13 29 1z m-644 -16 c0 -8 -4 -15 -10 -15 -5 0
-10 7 -10 15 0 8 5 15 10 15 6 0 10 -7 10 -15z m168 -6 c-2 -6 -8 -10 -13 -10
-5 0 -11 4 -13 10 -2 6 4 11 13 11 9 0 15 -5 13 -11z m642 -9 c0 -5 -5 -10
-11 -10 -5 0 -7 5 -4 10 3 6 8 10 11 10 2 0 4 -4 4 -10z m140 -6 c0 -8 -5 -12
-10 -9 -6 4 -8 11 -5 16 9 14 15 11 15 -7z m-650 -4 c0 -5 -2 -10 -4 -10 -3 0
-8 5 -11 10 -3 6 -1 10 4 10 6 0 11 -4 11 -10z m438 -41 c4 -56 -17 -123 -40
-127 -41 -8 -45 104 -6 154 28 34 42 26 46 -27z m280 33 c2 -7 -4 -15 -13 -18
-20 -8 -27 -1 -19 20 7 18 25 17 32 -2z m145 4 c8 -20 -20 -43 -35 -28 -8 8
-8 15 2 27 16 19 26 19 33 1z m-1083 -17 c0 -5 -4 -9 -10 -9 -5 0 -10 7 -10
16 0 8 5 12 10 9 6 -3 10 -10 10 -16z m-160 1 c0 -5 -4 -10 -10 -10 -5 0 -10
5 -10 10 0 6 5 10 10 10 6 0 10 -4 10 -10z m435 -20 c-5 -8 -11 -8 -17 -2 -6
6 -7 16 -3 22 5 8 11 8 17 2 6 -6 7 -16 3 -22z m145 20 c0 -5 -4 -10 -10 -10
-5 0 -10 5 -10 10 0 6 5 10 10 10 6 0 10 -4 10 -10z m300 -10 c0 -5 -7 -10
-15 -10 -8 0 -15 5 -15 10 0 6 7 10 15 10 8 0 15 -4 15 -10z m271 -23 c-5 -5
-17 -7 -26 -3 -14 5 -15 9 -5 21 10 12 16 13 27 4 9 -8 10 -16 4 -22z m-791 4
c0 -6 -4 -13 -10 -16 -5 -3 -10 1 -10 9 0 9 5 16 10 16 6 0 10 -4 10 -9z m594
-20 c3 -5 -1 -11 -9 -15 -15 -6 -29 7 -18 18 9 9 21 8 27 -3z m126 -6 c10 -12
9 -16 -5 -21 -19 -8 -40 9 -31 25 10 15 21 14 36 -4z m-805 -25 c-5 -8 -11 -8
-17 -2 -6 6 -7 16 -3 22 5 8 11 8 17 2 6 -6 7 -16 3 -22z m1081 3 c-10 -10
-19 5 -10 18 6 11 8 11 12 0 2 -7 1 -15 -2 -18z m-795 4 c-1 -12 -15 -9 -19 4
-3 6 1 10 8 8 6 -3 11 -8 11 -12z m89 -8 c0 -24 -23 -21 -28 4 -2 10 3 17 12
17 10 0 16 -9 16 -21z m40 11 c0 -5 -4 -10 -10 -10 -5 0 -10 5 -10 10 0 6 5
10 10 10 6 0 10 -4 10 -10z m735 -10 c10 -16 -16 -43 -28 -31 -11 11 -2 41 12
41 5 0 13 -5 16 -10z m-1230 -19 c7 -12 -12 -24 -25 -16 -11 7 -4 25 10 25 5
0 11 -4 15 -9z m885 -11 c13 -8 12 -11 -5 -24 -11 -9 -25 -16 -31 -16 -17 0
-24 26 -11 39 13 13 27 14 47 1z m-725 -10 c3 -5 1 -10 -4 -10 -6 0 -11 5 -11
10 0 6 2 10 4 10 3 0 8 -4 11 -10z m190 -19 c7 -12 -12 -24 -25 -16 -11 7 -4
25 10 25 5 0 11 -4 15 -9z m375 -1 c0 -5 -4 -10 -10 -10 -5 0 -10 5 -10 10 0
6 5 10 10 10 6 0 10 -4 10 -10z m-224 -71 c33 -12 32 -12 36 11 5 34 23 28 26
-8 5 -53 -20 -82 -72 -82 -50 0 -56 8 -56 73 0 24 7 48 18 60 17 19 17 19 20
-12 2 -23 10 -35 28 -42z m482 55 c39 -27 28 -89 -26 -146 -14 -15 -22 -31
-19 -35 4 -3 -1 -15 -10 -26 -23 -25 -20 -24 119 48 75 38 114 64 111 72 -3 7
-1 13 5 13 6 0 12 -5 14 -10 3 -10 87 26 190 80 l36 20 26 -31 c47 -55 37 -75
-64 -126 -88 -45 -160 -92 -160 -104 0 -5 -6 -9 -12 -9 -36 0 -263 -242 -346
-369 -20 -31 -40 -58 -43 -61 -3 -3 -13 -20 -22 -39 -16 -33 -16 -33 6 -26 60
18 67 18 67 -3 0 -25 -19 -39 -30 -23 -5 9 -10 8 -20 -4 -8 -9 -27 -23 -43
-32 -27 -14 -31 -13 -48 4 -10 10 -21 31 -25 47 -6 24 -4 28 8 24 10 -4 20 5
32 30 16 35 43 79 87 144 11 15 17 33 16 40 -2 7 -2 10 0 6 3 -4 22 15 44 42
22 28 37 55 34 61 -9 13 14 41 27 33 6 -4 39 24 74 62 60 64 67 83 29 84 -13
0 -173 -105 -247 -162 -34 -27 -65 -48 -70 -48 -5 0 -6 -5 -3 -10 9 -15 -13
-40 -29 -34 -7 3 -31 -13 -54 -36 -23 -22 -42 -37 -42 -33 0 3 -9 -2 -19 -11
-11 -10 -25 -15 -32 -10 -7 4 -10 3 -5 -4 8 -13 -10 -26 -24 -17 -8 5 -8 11
-1 19 8 10 5 18 -9 31 -26 24 -25 37 5 65 14 13 25 29 25 35 0 6 9 30 21 54
15 31 25 41 36 37 22 -9 73 41 73 71 0 13 5 24 10 24 6 1 13 2 18 3 10 1 185
196 176 196 -10 0 -95 -50 -116 -68 -10 -8 -15 -19 -12 -23 3 -5 -2 -9 -10 -9
-9 0 -32 -22 -52 -49 -21 -28 -43 -47 -50 -44 -18 7 -33 -3 -125 -87 -45 -41
-108 -98 -138 -126 -74 -67 -259 -213 -310 -244 -23 -13 -41 -30 -41 -37 0 -7
-8 -13 -19 -13 -10 0 -34 -11 -53 -24 -146 -98 -193 -116 -236 -87 -19 12 20
72 108 165 46 48 68 79 64 89 -7 18 15 34 26 18 9 -15 145 101 153 130 3 11
11 17 19 14 8 -3 23 3 33 13 11 10 41 34 66 53 37 28 45 39 38 51 -12 22 5 32
31 18 17 -9 25 -6 46 15 13 14 28 25 31 25 17 0 165 95 174 112 6 10 18 18 27
17 34 -5 63 13 121 79 l60 66 24 -22 c25 -24 33 -23 112 13 29 14 90 32 110
34 6 1 21 -6 33 -15z m-715 -9 c4 -8 2 -17 -4 -21 -12 -7 -41 15 -33 27 8 14
31 11 37 -6z m373 1 c7 -17 -22 -86 -35 -86 -15 0 -14 56 1 80 15 23 27 25 34
6z m474 -16 c0 -5 -5 -10 -11 -10 -5 0 -7 5 -4 10 3 6 8 10 11 10 2 0 4 -4 4
-10z m-790 -30 c0 -5 -2 -10 -4 -10 -3 0 -8 5 -11 10 -3 6 -1 10 4 10 6 0 11
-4 11 -10z m721 -3 c-1 -12 -15 -9 -19 4 -3 6 1 10 8 8 6 -3 11 -8 11 -12z
m-1379 -39 c-15 -15 -26 -4 -18 18 5 13 9 15 18 6 9 -9 9 -15 0 -24z m728 7
c10 -12 10 -18 0 -29 -13 -17 -36 -11 -44 11 -13 32 21 46 44 18z m-510 -20
c0 -8 -6 -15 -14 -15 -17 0 -28 14 -19 24 12 12 33 6 33 -9z m414 -12 c14 -28
8 -64 -12 -77 -14 -9 -35 50 -28 79 8 33 22 32 40 -2z m-258 6 c10 -17 -13
-36 -27 -22 -12 12 -4 33 11 33 5 0 12 -5 16 -11z m-237 -37 c6 -11 6 -24 1
-33 -8 -12 -12 -12 -26 3 -17 17 -13 48 5 48 6 0 15 -8 20 -18z m136 -1 c7
-12 -12 -24 -25 -16 -11 7 -4 25 10 25 5 0 11 -4 15 -9z m428 3 c3 -3 3 -12 0
-20 -4 -11 -9 -12 -19 -3 -8 6 -11 15 -8 20 6 10 18 12 27 3z m-698 -14 c3 -5
1 -10 -4 -10 -6 0 -11 5 -11 10 0 6 2 10 4 10 3 0 8 -4 11 -10z m205 -40 c0
-23 -20 -80 -29 -80 -4 0 -14 13 -23 28 -16 27 -16 30 5 59 16 23 25 29 34 21
7 -6 13 -18 13 -28z m274 32 c9 -14 -9 -31 -23 -23 -7 5 -10 14 -7 20 8 13 23
14 30 3z m-104 -23 c0 -11 -27 -12 -34 0 -3 4 -3 11 0 14 8 8 34 -3 34 -14z
m680 -5 c0 -8 -4 -12 -10 -9 -5 3 -10 10 -10 16 0 5 5 9 10 9 6 0 10 -7 10
-16z m-936 -35 c-8 -14 -34 -11 -34 4 0 8 3 17 7 20 9 9 34 -13 27 -24z m1496
21 c0 -5 -4 -10 -10 -10 -5 0 -10 5 -10 10 0 6 5 10 10 10 6 0 10 -4 10 -10z
m-1300 -61 c0 -5 -4 -9 -10 -9 -5 0 -10 7 -10 16 0 8 5 12 10 9 6 -3 10 -10
10 -16z m155 12 c7 -12 -12 -24 -25 -16 -11 7 -4 25 10 25 5 0 11 -4 15 -9z
m-445 -16 c0 -8 -4 -15 -10 -15 -5 0 -10 7 -10 15 0 8 5 15 10 15 6 0 10 -7
10 -15z m89 -24 c12 -8 12 -12 2 -25 -17 -20 -27 -20 -35 0 -11 29 6 42 33 25z
m271 -1 c0 -5 -7 -10 -15 -10 -8 0 -15 5 -15 10 0 6 7 10 15 10 8 0 15 -4 15
-10z m1138 -11 c-2 -6 -8 -10 -13 -10 -5 0 -11 4 -13 10 -2 6 4 11 13 11 9 0
15 -5 13 -11z m-1223 -19 c0 -7 -6 -15 -12 -17 -8 -3 -13 4 -13 17 0 13 5 20
13 18 6 -3 12 -11 12 -18z m145 0 c0 -5 -5 -10 -11 -10 -5 0 -7 5 -4 10 3 6 8
10 11 10 2 0 4 -4 4 -10z m860 -4 c0 -3 -4 -8 -10 -11 -5 -3 -10 -1 -10 4 0 6
5 11 10 11 6 0 10 -2 10 -4z m-1080 -26 c0 -4 -6 -13 -14 -19 -17 -14 -29 0
-20 22 5 15 34 13 34 -3z m650 5 c0 -8 -4 -15 -10 -15 -5 0 -10 -11 -10 -24 0
-28 -17 -43 -31 -29 -9 9 -1 31 24 71 11 17 27 15 27 -3z m-520 -15 c0 -5 -2
-10 -4 -10 -3 0 -8 5 -11 10 -3 6 -1 10 4 10 6 0 11 -4 11 -10z m860 -4 c0 -8
-4 -17 -9 -21 -12 -7 -24 12 -16 25 9 15 25 12 25 -4z m430 -12 c0 -14 -21
-19 -33 -7 -9 9 13 34 24 27 5 -3 9 -12 9 -20z m-1513 -20 c-9 -9 -28 6 -21
18 4 6 10 6 17 -1 6 -6 8 -13 4 -17z m1283 6 c0 -5 -2 -10 -4 -10 -3 0 -8 5
-11 10 -3 6 -1 10 4 10 6 0 11 -4 11 -10z m-1203 -25 c7 -20 -2 -29 -21 -22
-9 4 -13 13 -10 22 8 19 23 19 31 0z m203 6 c0 -6 -4 -13 -10 -16 -5 -3 -10 1
-10 9 0 9 5 16 10 16 6 0 10 -4 10 -9z m-370 -11 c0 -5 -4 -10 -10 -10 -5 0
-10 5 -10 10 0 6 5 10 10 10 6 0 10 -4 10 -10z m735 -27 c7 -29 -24 -71 -44
-59 -16 10 -13 52 5 70 22 22 31 20 39 -11z m-650 -22 c-9 -16 -25 -3 -18 15
4 10 9 12 15 6 6 -6 7 -15 3 -21z m1340 20 c7 -12 -12 -24 -25 -16 -11 7 -4
25 10 25 5 0 11 -4 15 -9z m-1505 -11 c0 -5 -4 -10 -10 -10 -5 0 -10 5 -10 10
0 6 5 10 10 10 6 0 10 -4 10 -10z m1425 -20 c0 -13 -6 -25 -12 -27 -16 -6 -27
21 -19 43 9 23 31 11 31 -16z m135 14 c0 -8 -5 -12 -10 -9 -6 4 -8 11 -5 16 9
14 15 11 15 -7z m150 6 c0 -5 -4 -10 -10 -10 -5 0 -10 5 -10 10 0 6 5 10 10
10 6 0 10 -4 10 -10z m-1793 -36 c-9 -9 -28 6 -21 18 4 6 10 6 17 -1 6 -6 8
-13 4 -17z m1223 12 c0 -8 -4 -18 -10 -21 -5 -3 -10 -18 -10 -33 0 -29 -24
-72 -41 -72 -20 0 -9 69 16 96 14 15 25 31 25 35 0 5 5 9 10 9 6 0 10 -6 10
-14z m-1060 -6 c0 -5 -4 -10 -10 -10 -5 0 -10 5 -10 10 0 6 5 10 10 10 6 0 10
-4 10 -10z m210 -36 c0 -14 -21 -19 -33 -7 -9 9 13 34 24 27 5 -3 9 -12 9 -20z
m1056 15 c3 -6 1 -16 -5 -22 -9 -9 -14 -8 -21 3 -9 15 -4 30 10 30 5 0 12 -5
16 -11z m-1216 -19 c0 -5 -4 -10 -10 -10 -5 0 -10 5 -10 10 0 6 5 10 10 10 6
0 10 -4 10 -10z m582 -5 c0 -5 -5 -11 -11 -13 -6 -2 -11 4 -11 13 0 9 5 15 11
13 6 -2 11 -8 11 -13z m698 -5 c0 -5 -7 -10 -15 -10 -8 0 -15 5 -15 10 0 6 7
10 15 10 8 0 15 -4 15 -10z m283 -6 c11 -11 -3 -24 -18 -18 -8 4 -12 10 -9 15
6 11 18 12 27 3z m-1491 -19 c0 -5 -5 -11 -11 -13 -6 -2 -11 4 -11 13 0 9 5
15 11 13 6 -2 11 -8 11 -13z m428 -10 c0 -8 -4 -15 -9 -15 -13 0 -22 16 -14
24 11 11 23 6 23 -9z m146 2 c7 -19 -24 -87 -40 -87 -30 0 -27 35 7 88 11 16
26 15 33 -1z m554 9 c0 -3 -4 -8 -10 -11 -5 -3 -10 -1 -10 4 0 6 5 11 10 11 6
0 10 -2 10 -4z m-501 -20 c8 -10 8 -16 -3 -25 -10 -9 -16 -8 -26 3 -12 15 -6
36 9 36 5 0 14 -6 20 -14z m779 3 c-2 -6 -8 -10 -13 -10 -5 0 -11 4 -13 10 -2
6 4 11 13 11 9 0 15 -5 13 -11z m-1490 -23 c3 -12 -1 -17 -10 -14 -7 3 -15 13
-16 22 -3 12 1 17 10 14 7 -3 15 -13 16 -22z m1412 -6 c0 -5 -4 -10 -9 -10 -6
0 -13 5 -16 10 -3 6 1 10 9 10 9 0 16 -4 16 -10z m-886 -42 c-6 -10 -38 -11
-47 -1 -4 3 -2 12 4 19 8 10 15 10 29 2 10 -7 16 -16 14 -20z m254 21 c-2 -6
-8 -10 -13 -10 -5 0 -11 4 -13 10 -2 6 4 11 13 11 9 0 15 -5 13 -11z m133 -4
c-1 -15 -24 -12 -29 3 -3 9 2 13 12 10 10 -1 17 -7 17 -13z m-831 -5 c0 -5 -7
-10 -15 -10 -8 0 -15 5 -15 10 0 6 7 10 15 10 8 0 15 -4 15 -10z m1260 -24
c-13 -13 -35 7 -25 24 5 8 11 8 21 -1 10 -8 12 -15 4 -23z m-1585 4 c3 -5 1
-10 -4 -10 -6 0 -11 5 -11 10 0 6 2 10 4 10 3 0 8 -4 11 -10z m939 -9 c3 -4 3
-11 0 -14 -8 -8 -34 3 -34 14 0 11 27 12 34 0z m411 -21 c-6 -9 -9 -9 -16 1
-10 17 0 34 13 21 6 -6 7 -16 3 -22z m-625 -15 c0 -8 -5 -17 -11 -21 -16 -9
-30 18 -17 33 12 15 28 8 28 -12z m139 12 c8 -10 7 -18 -3 -32 -15 -21 -36
-13 -36 14 0 31 20 40 39 18z m-585 -6 c3 -5 -1 -14 -8 -20 -16 -13 -32 2 -21
19 8 12 22 13 29 1z m772 -22 c8 -14 -11 -33 -25 -25 -11 7 -4 36 9 36 5 0 12
-5 16 -11z m424 -5 c0 -8 -4 -12 -10 -9 -5 3 -10 10 -10 16 0 5 5 9 10 9 6 0
10 -7 10 -16z m-565 -24 c-5 -8 -11 -8 -17 -2 -6 6 -7 16 -3 22 5 8 11 8 17 2
6 -6 7 -16 3 -22z m-365 -16 c0 -16 -16 -19 -25 -4 -8 13 4 32 16 25 5 -4 9
-13 9 -21z m1225 6 c3 -5 1 -10 -4 -10 -6 0 -11 5 -11 10 0 6 2 10 4 10 3 0 8
-4 11 -10z m-1060 -10 c4 -6 1 -18 -6 -26 -11 -13 -14 -13 -27 0 -8 8 -11 19
-8 25 9 14 33 14 41 1z m135 -12 c0 -18 -2 -20 -9 -8 -6 8 -7 18 -5 22 9 14
14 9 14 -14z m60 -34 c0 -8 -7 -14 -15 -14 -15 0 -21 21 -9 33 10 9 24 -2 24
-19z m147 -10 c-12 -12 -37 5 -30 21 5 15 7 15 21 1 9 -9 13 -18 9 -22z m-582
17 c7 -12 -12 -24 -25 -16 -11 7 -4 25 10 25 5 0 11 -4 15 -9z m143 -2 c-2 -6
-8 -10 -13 -10 -5 0 -11 4 -13 10 -2 6 4 11 13 11 9 0 15 -5 13 -11z m718 0
c10 -17 -13 -36 -27 -22 -12 12 -4 33 11 33 5 0 12 -5 16 -11z m-514 -41 c-17
-17 -47 9 -30 29 10 12 13 12 27 -1 11 -12 12 -19 3 -28z m-89 -6 c16 -17 16
-21 2 -32 -17 -14 -38 -2 -56 32 -23 43 15 43 54 0z m246 14 c9 -10 8 -15 -3
-19 -16 -6 -40 16 -29 26 10 11 19 8 32 -7z m141 -6 c0 -5 -4 -10 -10 -10 -5
0 -10 5 -10 10 0 6 5 10 10 10 6 0 10 -4 10 -10z m130 -5 c0 -8 -4 -15 -10
-15 -5 0 -10 7 -10 15 0 8 5 15 10 15 6 0 10 -7 10 -15z m-790 -10 c13 -16 6
-35 -15 -35 -18 0 -28 17 -21 35 7 19 20 19 36 0z m865 -5 c11 -17 -5 -32 -21
-19 -7 6 -11 15 -8 20 7 12 21 11 29 -1z m198 -6 c7 -8 -14 -54 -25 -54 -15 0
-21 30 -8 45 13 16 23 19 33 9z m-623 -14 c0 -5 -4 -10 -10 -10 -5 0 -10 5
-10 10 0 6 5 10 10 10 6 0 10 -4 10 -10z m270 -5 c0 -8 -4 -15 -10 -15 -5 0
-10 7 -10 15 0 8 5 15 10 15 6 0 10 -7 10 -15z m-365 -25 c-5 -8 -11 -8 -17
-2 -6 6 -7 16 -3 22 5 8 11 8 17 2 6 -6 7 -16 3 -22z m285 6 c0 -3 -4 -8 -10
-11 -5 -3 -10 -1 -10 4 0 6 5 11 10 11 6 0 10 -2 10 -4z m77 -22 c8 -21 -13
-42 -28 -27 -13 13 -5 43 11 43 6 0 13 -7 17 -16z m-593 -3 c3 -5 -1 -14 -8
-20 -16 -13 -32 2 -21 19 8 12 22 13 29 1z m446 -3 c0 -23 -16 -39 -33 -32
-20 7 -21 16 -5 32 16 16 38 15 38 0z m-140 -8 c0 -5 -2 -10 -4 -10 -3 0 -8 5
-11 10 -3 6 -1 10 4 10 6 0 11 -4 11 -10z m695 1 c7 -12 -12 -24 -25 -16 -11
7 -4 25 10 25 5 0 11 -4 15 -9z m-1087 -38 c-10 -12 -13 -12 -20 1 -13 23 0
40 18 25 11 -9 12 -15 2 -26z m868 26 c3 -6 1 -16 -5 -22 -9 -9 -14 -8 -21 3
-9 15 -4 30 10 30 5 0 12 -5 16 -11z m68 2 c3 -5 -1 -14 -9 -21 -13 -10 -15
-9 -15 9 0 21 14 28 24 12z m-794 -21 c0 -5 -4 -10 -10 -10 -5 0 -10 5 -10 10
0 6 5 10 10 10 6 0 10 -4 10 -10z m1070 0 c0 -5 -4 -10 -10 -10 -5 0 -10 5
-10 10 0 6 5 10 10 10 6 0 10 -4 10 -10z m-910 -10 c0 -5 -4 -10 -10 -10 -5 0
-10 5 -10 10 0 6 5 10 10 10 6 0 10 -4 10 -10z m705 0 c3 -5 -1 -10 -9 -10 -9
0 -16 5 -16 10 0 6 4 10 9 10 6 0 13 -4 16 -10z m-930 -21 c0 -7 -8 -15 -17
-17 -18 -3 -25 18 -11 32 10 10 28 1 28 -15z m275 11 c0 -5 -4 -10 -10 -10 -5
0 -10 5 -10 10 0 6 5 10 10 10 6 0 10 -4 10 -10z m166 -11 c10 -17 -13 -36
-27 -22 -12 12 -4 33 11 33 5 0 12 -5 16 -11z m278 -12 c8 -12 7 -20 -2 -29
-17 -17 -45 11 -36 36 8 20 23 17 38 -7z m271 -17 c-5 -8 -11 -8 -17 -2 -6 6
-7 16 -3 22 5 8 11 8 17 2 6 -6 7 -16 3 -22z m-789 9 c10 -17 -13 -36 -27 -22
-12 12 -4 33 11 33 5 0 12 -5 16 -11z m659 1 c3 -5 -1 -10 -9 -10 -9 0 -16 5
-16 10 0 6 4 10 9 10 6 0 13 -4 16 -10z m405 0 c0 -5 -4 -10 -10 -10 -5 0 -10
5 -10 10 0 6 5 10 10 10 6 0 10 -4 10 -10z m-1210 -20 c0 -5 -5 -10 -11 -10
-5 0 -7 5 -4 10 3 6 8 10 11 10 2 0 4 -4 4 -10z m300 0 c0 -5 -4 -10 -10 -10
-5 0 -10 5 -10 10 0 6 5 10 10 10 6 0 10 -4 10 -10z m-241 -42 c-10 -18 -12
-19 -27 -5 -13 13 -13 19 -2 32 19 23 44 0 29 -27z m171 6 c0 -22 -22 -28 -36
-9 -18 24 1 52 22 34 8 -6 14 -17 14 -25z m220 26 c0 -5 -7 -10 -15 -10 -8 0
-15 5 -15 10 0 6 7 10 15 10 8 0 15 -4 15 -10z m-464 -41 c10 -17 -13 -36 -27
-22 -12 12 -4 33 11 33 5 0 12 -5 16 -11z m149 -18 c7 -12 -12 -24 -25 -16
-11 7 -4 25 10 25 5 0 11 -4 15 -9z m365 -1 c0 -5 -7 -10 -15 -10 -8 0 -15 5
-15 10 0 6 7 10 15 10 8 0 15 -4 15 -10z m333 -21 c-17 -17 -37 -1 -22 17 8
10 15 12 23 4 7 -7 7 -13 -1 -21z m-944 -20 c-21 -12 -35 7 -19 26 12 15 14
15 23 -1 6 -11 5 -19 -4 -25z m677 30 c10 -17 -13 -36 -27 -22 -12 12 -4 33
11 33 5 0 12 -5 16 -11z m-891 -29 c-5 -8 -11 -8 -17 -2 -6 6 -7 16 -3 22 5 8
11 8 17 2 6 -6 7 -16 3 -22z m606 8 c10 -18 8 -29 -12 -65 -26 -48 -34 -52
-49 -24 -15 30 -12 56 11 85 25 32 35 33 50 4z m-223 1 c-2 -6 -8 -10 -13 -10
-5 0 -11 4 -13 10 -2 6 4 11 13 11 9 0 15 -5 13 -11z m362 -45 c0 -7 -5 -16
-11 -20 -17 -10 -32 12 -24 36 5 17 10 19 21 9 8 -6 14 -17 14 -25z m-440 16
c0 -5 -4 -10 -10 -10 -5 0 -10 5 -10 10 0 6 5 10 10 10 6 0 10 -4 10 -10z
m676 -1 c10 -17 -12 -32 -40 -25 -17 4 -23 11 -20 21 7 17 50 20 60 4z m-746
-45 c0 -8 -7 -14 -15 -14 -15 0 -21 21 -9 33 10 9 24 -2 24 -19z m260 0 c0 -8
-5 -12 -10 -9 -6 4 -8 11 -5 16 9 14 15 11 15 -7z m351 -15 c7 -14 8 -24 1
-31 -15 -15 -32 0 -32 28 0 30 15 31 31 3z m-201 1 c0 -5 -4 -10 -10 -10 -5 0
-10 5 -10 10 0 6 5 10 10 10 6 0 10 -4 10 -10z m290 -34 c0 -28 -15 -50 -29
-42 -12 8 -15 68 -4 79 10 11 33 -14 33 -37z m-520 24 c0 -5 -4 -10 -10 -10
-5 0 -10 5 -10 10 0 6 5 10 10 10 6 0 10 -4 10 -10z m300 0 c0 -5 -4 -10 -10
-10 -5 0 -10 5 -10 10 0 6 5 10 10 10 6 0 10 -4 10 -10z m-360 -30 c0 -4 -6
-13 -14 -19 -10 -9 -16 -7 -27 5 -10 13 -10 17 1 24 14 9 40 3 40 -10z m275 0
c3 -5 1 -10 -4 -10 -6 0 -11 5 -11 10 0 6 2 10 4 10 3 0 8 -4 11 -10z m-137
-21 c-2 -6 -8 -10 -13 -10 -5 0 -11 4 -13 10 -2 6 4 11 13 11 9 0 15 -5 13
-11z m550 0 c-2 -6 -8 -10 -13 -10 -5 0 -11 4 -13 10 -2 6 4 11 13 11 9 0 15
-5 13 -11z m-353 -19 c3 -5 1 -10 -4 -10 -6 0 -11 5 -11 10 0 6 2 10 4 10 3 0
8 -4 11 -10z m-525 -30 c0 -5 -4 -10 -10 -10 -5 0 -10 5 -10 10 0 6 5 10 10
10 6 0 10 -4 10 -10z m450 1 c0 -6 -4 -13 -10 -16 -5 -3 -10 1 -10 9 0 9 5 16
10 16 6 0 10 -4 10 -9z m-290 -11 c0 -5 -4 -10 -10 -10 -5 0 -10 5 -10 10 0 6
5 10 10 10 6 0 10 -4 10 -10z m-70 -45 c0 -8 -4 -15 -9 -15 -5 0 -11 7 -15 15
-3 9 0 15 9 15 8 0 15 -7 15 -15z m610 -20 c0 -17 -2 -18 -24 -9 -23 9 -20 24
4 24 11 0 20 -7 20 -15z m-504 -16 c10 -17 -13 -36 -27 -22 -12 12 -4 33 11
33 5 0 12 -5 16 -11z m756 -71 c-9 -9 -12 -7 -12 12 0 19 3 21 12 12 9 -9 9
-15 0 -24z"/>
<path d="M2042 1711 c-22 -13 -28 -20 -18 -24 8 -3 24 5 37 19 27 28 25 29
-19 5z"/>
<path d="M1815 1680 c-21 -23 -8 -27 20 -7 11 8 14 16 8 20 -6 4 -18 -2 -28
-13z"/>
<path d="M1379 1634 c-7 -9 -22 -20 -34 -24 -14 -6 -15 -9 -4 -9 8 -1 26 10
39 24 13 14 21 25 18 25 -3 0 -12 -7 -19 -16z"/>
<path d="M1281 1571 c-8 -5 -15 -19 -16 -30 l-2 -21 24 22 c33 31 29 51 -6 29z"/>
<path d="M1153 1480 c-39 -27 -70 -55 -69 -62 0 -7 -3 -13 -9 -13 -5 0 -9 4
-7 8 5 16 -80 -57 -179 -152 -65 -63 -95 -99 -91 -109 4 -11 1 -14 -10 -10
-10 4 -24 -5 -38 -25 l-23 -31 39 24 c59 36 89 61 89 73 0 7 7 12 16 12 16 0
75 45 164 125 27 25 75 67 105 92 111 94 111 94 97 107 -11 8 -30 0 -84 -39z"/>
<path d="M1899 1493 l-24 -28 28 24 c25 23 32 31 24 31 -2 0 -14 -12 -28 -27z"/>
<path d="M1521 1486 c-13 -13 -18 -26 -13 -30 5 -3 19 5 31 18 13 13 18 26 13
30 -5 3 -19 -5 -31 -18z"/>
</g>
</svg>
